<svg width="137" height="99" viewBox="0 0 137 99" fill="none" xmlns="http://www.w3.org/2000/svg">
<path d="M12.6757 46.4186C10.9629 46.4186 9.24033 46.1556 7.51122 45.6334C5.78048 45.1111 4.2622 44.3494 2.95474 43.3499L3.22277 45.9359H0.385594L0.05873 33.1139H2.18988C2.36802 36.568 3.44013 39.2278 5.40622 41.0953C7.37557 42.9591 9.87281 43.8902 12.8979 43.8902C15.1157 43.8902 16.9805 43.2185 18.4938 41.8732C20.0056 40.5298 20.7623 38.693 20.7623 36.3627C20.7623 34.6393 20.3324 33.1644 19.4744 31.9398C18.6197 30.7152 17.5655 29.6923 16.3104 28.8712C15.0552 28.0464 13.3523 27.0919 11.2048 26.0114C8.76311 24.7256 6.82154 23.6019 5.38007 22.6403C3.94187 21.675 2.71286 20.4 1.69305 18.8153C0.673234 17.2305 0.163326 15.2748 0.163326 12.9445C0.163326 11.3418 0.499996 9.73722 1.1766 8.13268C1.85158 6.52452 3.01685 5.15768 4.67404 4.03396C6.32961 2.91023 8.5245 2.34837 11.2571 2.34837C12.8947 2.34837 14.5421 2.58248 16.1993 3.0471C17.8548 3.50811 19.3764 4.30048 20.7623 5.42421L20.5465 2.831H23.3314V16.078H21.3637C21.1807 12.9085 20.2605 10.2325 18.605 8.04623C16.9478 5.85641 14.6254 4.7615 11.6362 4.7615C9.45279 4.7615 7.74166 5.43501 6.50448 6.77844C5.26567 8.12367 4.6479 9.79665 4.6479 11.7992C4.6479 13.4091 5.06628 14.794 5.90305 15.9555C6.73982 17.1189 7.75964 18.0805 8.9625 18.8441C10.1654 19.6076 11.8585 20.5513 14.042 21.675C16.5163 22.9194 18.5102 24.0431 20.0236 25.0462C21.5353 26.051 22.8182 27.3657 23.874 28.9936C24.9331 30.618 25.4626 32.6133 25.4626 34.9796C25.4626 37.2271 24.9608 39.2152 23.959 40.944C22.9555 42.6692 21.4895 44.0126 19.5594 44.9779C17.6277 45.9377 15.3331 46.4186 12.6757 46.4186Z" fill="black"/>
<path d="M37.8094 46.4184C32.8181 46.4184 30.3405 42.7267 30.3765 35.3397L30.4876 17.8787L26.2776 17.9435V15.3575C28.0296 15.3143 29.5152 14.4409 30.736 12.7355C31.9552 11.0319 32.8557 9.09601 33.4359 6.92959H35.2925V15.3575H44.4708V17.6986L35.2925 17.8211C35.2566 23.9638 35.2304 28.2191 35.2141 30.5855C35.1961 32.9536 35.1879 34.2772 35.1879 34.5545C35.1879 37.407 35.4968 39.5248 36.1162 40.9079C36.734 42.2909 37.8094 42.9824 39.3391 42.9824C40.2837 42.9824 41.2218 42.6637 42.1501 42.0244C43.0784 41.3815 43.889 40.4973 44.582 39.3736L46.0594 40.699C44.6375 43.0293 43.2353 44.5654 41.8494 45.3091C40.4668 46.0475 39.1201 46.4184 37.8094 46.4184Z" fill="black"/>
<path d="M57.4763 46.4183C54.3809 46.4183 52.1124 45.4369 50.671 43.4722C49.2328 41.5038 48.5137 38.1111 48.5137 33.2938V22.5752C48.5137 20.8896 48.5872 19.5858 48.7359 18.6638L44.9639 18.8439V16.3803H46.6571C48.0773 16.3803 49.1511 16.2416 49.88 15.9625C50.6121 15.6798 51.2332 15.2764 51.7431 14.7523H53.3251V33.1137C53.3251 36.6434 53.7696 39.233 54.6587 40.879C55.551 42.5267 57.0383 43.3497 59.1171 43.3497C60.4638 43.3497 61.7811 42.9085 63.0722 42.0243C64.3666 41.1419 65.4142 40.0362 66.2166 38.7107V23.2379C66.2166 21.3506 66.3081 19.8271 66.4912 18.6638L62.5557 18.8439V16.3803H64.2489C65.6691 16.3803 66.7429 16.2416 67.4718 15.9625C68.2039 15.6798 68.825 15.2764 69.3349 14.7523H70.9169L70.8581 37.5078C70.8581 39.8381 70.7862 41.7218 70.6423 43.1624L74.5778 42.9247V45.4531H66.7657C66.5827 44.2105 66.4536 43.0075 66.38 41.8442C65.1772 43.166 63.7733 44.2573 62.17 45.1217C60.57 45.9861 59.006 46.4183 57.4763 46.4183Z" fill="black"/>
<path d="M87.5245 46.4185C85.2659 46.4185 83.2442 45.7954 81.4579 44.5528C79.6749 43.3102 78.2742 41.5454 77.2544 39.2583C76.2346 36.9677 75.7247 34.2988 75.7247 31.2482C75.7247 28.0355 76.3261 25.1451 77.529 22.5753C78.7319 20.0073 80.3956 18.0012 82.5235 16.5605C84.6546 15.1163 87.0685 14.3923 89.7668 14.3923C90.8945 14.3923 92.0499 14.5634 93.2315 14.9038C94.4164 15.2459 95.3921 15.6367 96.1602 16.0779V7.83006C96.1602 6.30295 96.2142 4.99914 96.3237 3.91863L92.4405 4.15634V1.62796C94.588 1.62796 96.1275 1.4893 97.0558 1.21017C97.9874 0.927433 98.7098 0.524045 99.2197 0H100.802V39.0711C100.802 40.3587 100.727 41.7219 100.579 43.1626L104.463 42.9249V45.4532H96.6505C96.4675 44.3691 96.3384 43.3246 96.2648 42.3198C95.2091 43.6074 93.9261 44.614 92.4144 45.338C90.901 46.0583 89.2716 46.4185 87.5245 46.4185ZM89.4922 43.4651C90.6558 43.4651 91.8473 43.0959 93.0681 42.3558C94.2873 41.612 95.3186 40.6594 96.1602 39.4961C96.121 38.8532 96.1014 37.7492 96.1014 36.1825L96.1602 18.844C94.4475 17.4429 92.4242 16.7406 90.0936 16.7406C87.4689 16.7406 85.3558 17.9346 83.7525 20.3207C82.1525 22.7086 81.3533 25.8673 81.3533 29.8003C81.3533 33.8972 82.0626 37.1982 83.4845 39.705C84.9047 42.2117 86.9067 43.4651 89.4922 43.4651Z" fill="black"/>
<path d="M109.978 61.7689C108.775 61.7689 107.79 61.4466 107.023 60.8037C106.26 60.159 105.879 59.2567 105.879 58.0952C105.879 57.3316 106.105 56.6581 106.559 56.0783C107.017 55.4966 107.609 55.2066 108.337 55.2066C109.07 55.2066 109.607 55.4876 109.952 56.0494C110.295 56.6113 110.469 57.1912 110.469 57.7926C110.469 58.1528 110.451 58.4338 110.416 58.6354C110.524 58.7165 110.725 58.7579 111.018 58.7579C111.492 58.7579 111.974 58.5562 112.462 58.1528C112.954 57.753 113.401 57.1732 113.803 56.4096C114.639 54.8825 115.914 51.4501 117.627 46.116L109.102 26.0114C107.573 22.4007 106.608 19.6292 106.213 17.6987L103.585 17.8212V15.3576H114.894V17.1585H114.679C112.966 17.2791 112.109 18.0805 112.109 19.5644C112.109 20.5693 112.547 22.1342 113.423 24.261L119.81 39.3736C120.904 35.9646 122.471 30.9277 124.511 24.261C125.748 20.2901 126.642 18.0643 127.191 17.5835L123.419 17.8212V15.3576H131.996V17.1585C130.757 17.6825 129.801 18.5163 129.126 19.658C128.454 20.8016 127.717 22.579 126.916 24.9885L120.085 45.9935C118.773 50.0454 117.689 53.1051 116.836 55.1706C115.981 57.2398 115.015 58.8551 113.94 60.0185C112.868 61.1854 111.547 61.7689 109.978 61.7689Z" fill="black"/>
<path d="M6.06659 63.9052H6.01429L6.17772 89.6644C6.17772 92.3549 6.14013 94.343 6.06659 95.6288L10.002 95.3839V98.0347H0V96.0466C1.45945 96.0466 2.42533 95.5856 2.89601 94.6636C3.36996 93.7415 3.60857 92.6178 3.60857 91.2924L3.66087 58.301L0 58.5459V55.8951H6.50459L29.7773 90.2119H29.8296L29.8884 62.6374C29.8884 60.9518 29.9423 59.5075 30.0518 58.301L26.1164 58.5459V55.8951H36.1707V57.8832C35.0757 57.9228 34.2651 58.1533 33.7389 58.5747C33.211 58.9979 32.8727 59.5724 32.7256 60.2963C32.5818 61.0167 32.5099 61.9783 32.5099 63.1777V65.2882L32.3987 99H29.7773L6.06659 63.9052Z" fill="black"/>
<path d="M51.4115 98.9999C48.8963 98.9999 46.6278 98.348 44.6062 97.0478C42.5878 95.7422 40.9943 93.8748 39.8274 91.4436C38.6638 89.0143 38.082 86.214 38.082 83.0445C38.082 80.2352 38.6638 77.5969 39.8274 75.128C40.9943 72.6608 42.6254 70.6835 44.7173 69.1996C46.8125 67.7157 49.1904 66.9738 51.8495 66.9738C53.9234 66.9738 55.798 67.4762 57.4715 68.4793C59.1483 69.4842 60.4787 70.9789 61.4593 72.967C62.4431 74.9515 62.9367 77.388 62.9367 80.2784L43.7106 80.6386C43.6713 85.4558 44.3872 89.2088 45.8613 91.8974C47.3388 94.5879 49.6268 95.9313 52.7255 95.9313C54.399 95.9313 56.1183 95.4487 57.8834 94.4834C59.6517 93.5182 61.0098 92.335 61.9561 90.9322L63.2701 92.1351C61.8842 94.4654 60.0881 96.1906 57.8834 97.3144C55.6819 98.4381 53.5247 98.9999 51.4115 98.9999ZM57.8049 78.1102C57.8049 75.7007 57.3114 73.6333 56.3275 71.9081C55.3469 70.1847 53.8711 69.3221 51.9018 69.3221C47.3862 69.3221 44.7108 72.2521 43.874 78.1102H57.8049Z" fill="black"/>
<path d="M76.271 98.9999C74.5582 98.9999 72.9909 98.7478 71.5707 98.2436C70.1488 97.7448 68.9296 97.1127 67.9098 96.3491L68.1321 98.4525H65.8375L65.5106 88.1012H67.2038C67.2724 89.749 67.681 91.2167 68.4262 92.5025C69.1748 93.7847 70.1603 94.7986 71.3811 95.5423C72.6003 96.2825 73.9012 96.6516 75.2838 96.6516C76.8528 96.6516 78.2469 96.2411 79.4677 95.4199C80.6869 94.5951 81.2981 93.4209 81.2981 91.8974C81.2981 90.7737 80.9974 89.8301 80.396 89.0665C79.7946 88.3029 79.0461 87.6727 78.1537 87.172C77.2597 86.6678 76.0127 86.0753 74.4144 85.3928C72.4826 84.5914 70.9333 83.8405 69.7664 83.1381C68.6028 82.4322 67.6025 81.4796 66.7658 80.2784C65.929 79.0736 65.5106 77.5483 65.5106 75.7043C65.5106 74.3788 65.7999 73.0534 66.3801 71.728C66.9635 70.4026 67.9458 69.2789 69.3284 68.3568C70.7143 67.4348 72.5545 66.9738 74.8524 66.9738C75.9801 66.9738 77.1355 67.1755 78.3171 67.5789C79.502 67.9787 80.6052 68.6378 81.625 69.5598L81.5139 67.2763H83.8084V77.8076H82.063C81.9535 75.4792 81.3063 73.4622 80.1214 71.7568C78.9349 70.0532 77.2679 69.1996 75.1204 69.1996C73.4812 69.1996 72.1786 69.6516 71.2111 70.5539C70.2469 71.4579 69.7664 72.5312 69.7664 73.7738C69.7664 74.9371 70.0835 75.9204 70.7208 76.7271C71.3615 77.5303 72.1541 78.211 73.1004 78.7729C74.045 79.3348 75.3198 79.9578 76.9247 80.6386C78.8205 81.4796 80.3502 82.2629 81.5139 82.9869C82.6808 83.7072 83.6744 84.6617 84.4949 85.8466C85.3137 87.028 85.7239 88.4614 85.7239 90.147C85.7239 92.0739 85.2761 93.6983 84.3837 95.0237C83.4898 96.3491 82.3245 97.3432 80.8863 98.0059C79.4481 98.6686 77.9086 98.9999 76.271 98.9999Z" fill="black"/>
<path d="M97.9063 99C92.9151 99 90.4374 95.3083 90.4734 87.9212L90.5845 70.4602L86.3745 70.5251V67.9391C88.1265 67.8958 89.6121 67.0224 90.8329 65.317C92.0521 63.6134 92.9527 61.6775 93.5328 59.5111H95.3894V67.9391H104.568V70.2802L95.3894 70.4026C95.3535 76.5453 95.3273 80.8007 95.311 83.167C95.293 85.5351 95.2848 86.8587 95.2848 87.136C95.2848 89.9886 95.5937 92.1064 96.2131 93.4894C96.8309 94.8724 97.9063 95.564 99.436 95.564C100.381 95.564 101.319 95.2452 102.247 94.6059C103.175 93.963 103.986 93.0788 104.679 91.9551L106.156 93.2805C104.734 95.6108 103.332 97.1469 101.946 97.8907C100.564 98.629 99.217 99 97.9063 99Z" fill="black"/>
<mask id="mask0_79_122" style="mask-type:alpha" maskUnits="userSpaceOnUse" x="104" y="60" width="33" height="33">
<path d="M104 60H136.634V92.7321H104V60Z" fill="black"/>
</mask>
<g mask="url(#mask0_79_122)">
<mask id="mask1_79_122" style="mask-type:luminance" maskUnits="userSpaceOnUse" x="101" y="56" width="39" height="41">
<path d="M101.872 60.7006L136.201 56.7207L139.615 92.4818L105.287 96.4617L101.872 60.7006Z" fill="white"/>
</mask>
<g mask="url(#mask1_79_122)">
<mask id="mask2_79_122" style="mask-type:luminance" maskUnits="userSpaceOnUse" x="101" y="56" width="39" height="41">
<path d="M101.872 60.7006L136.201 56.7207L139.615 92.4818L105.287 96.4617L101.872 60.7006Z" fill="white"/>
</mask>
<g mask="url(#mask2_79_122)">
<path fill-rule="evenodd" clip-rule="evenodd" d="M129.143 63.9835C112.952 65.7789 105.056 75.0947 105.955 92.3791C105.966 92.597 105.68 92.6421 105.631 92.4314C104.373 86.8956 104.025 81.7578 104.896 77.1566C107.776 61.9683 123.921 58.1469 135.951 61.4533C136.551 61.619 136.746 62.4239 136.306 62.903C128.026 71.8964 131.328 93.4398 108.433 86.5912C110.747 74.4536 117.096 66.3624 129.143 63.9835Z" fill="black"/>
</g>
</g>
</g>
</svg>
