<?xml version="1.0" encoding="utf-8"?>
<svg width="33" height="33" viewBox="0 0 33 33" fill="none" xmlns="http://www.w3.org/2000/svg">
  <mask id="mask0_66_139" style="mask-type:luminance" maskUnits="userSpaceOnUse" x="-3" y="-4" width="39" height="41">
    <path d="M-2.12756 0.700562L32.2013 -3.2793L35.6154 32.4818L1.28653 36.4617L-2.12756 0.700562Z" fill="white"/>
  </mask>
  <g mask="url(#mask0_66_139)">
    <mask id="mask1_66_139" style="mask-type:luminance" maskUnits="userSpaceOnUse" x="-3" y="-4" width="39" height="41">
      <path d="M-2.12756 0.700562L32.2013 -3.2793L35.6154 32.4818L1.28653 36.4617L-2.12756 0.700562Z" fill="white"/>
    </mask>
    <g mask="url(#mask1_66_139)">
      <path fill-rule="evenodd" clip-rule="evenodd" d="M25.1427 3.98347C8.95154 5.77891 1.05614 15.0947 1.95502 32.3791C1.96646 32.597 1.68045 32.6421 1.63142 32.4314C0.372997 26.8956 0.0248873 21.7578 0.895979 17.1566C3.77565 1.96833 19.9211 -1.85305 31.9513 1.45329C32.5511 1.61897 32.7456 2.42394 32.3059 2.90297C24.0265 11.8964 27.3278 33.4398 4.43264 26.5912C6.74684 14.4536 13.0962 6.36238 25.1427 3.98347Z" style="stroke-width: 0px; paint-order: fill; fill: rgb(254, 252, 248);"/>
    </g>
  </g>
</svg>